<?xml version="1.0" encoding="utf-8"?>
<!-- Generator: Adobe Illustrator 19.1.0, SVG Export Plug-In . SVG Version: 6.00 Build 0)  -->
<svg version="1.1" id="Layer_1" xmlns="http://www.w3.org/2000/svg" xmlns:xlink="http://www.w3.org/1999/xlink" x="0px" y="0px"
	 viewBox="0 0 50 50" style="enable-background:new 0 0 50 50;" xml:space="preserve">
<style type="text/css">
	.st0{fill:#FC8BA9;}
	.st1{fill:#FCBE5A;}
	.st2{fill:#390CEA;}
	.st3{fill:#F34E30;}
	.st4{fill:#F84C64;}
	.st5{fill:#FFFFFF;}
</style>
<g id="twitter">
	<path d="M33.6,18.9c-0.7,0.3-1.4,0.5-2.1,0.6c0.8-0.5,1.3-1.3,1.6-2.2c-0.7,0.5-1.5,0.8-2.3,1c-0.7-0.8-1.6-1.3-2.7-1.3
		c-2,0-3.7,1.8-3.7,4c0,0.3,0,0.6,0.1,0.9c-3-0.2-5.8-1.7-7.6-4.1c-0.3,0.6-0.5,1.3-0.5,2c0,1.4,0.6,2.6,1.6,3.3
		c-0.6,0-1.2-0.2-1.7-0.5c0,0,0,0,0,0.1c0,1.9,1.3,3.5,2.9,3.9c-0.3,0.1-0.6,0.1-1,0.1c-0.2,0-0.5,0-0.7-0.1
		c0.5,1.6,1.8,2.7,3.4,2.7c-1.3,1.1-2.8,1.7-4.6,1.7c-0.3,0-0.6,0-0.9-0.1c1.6,1.1,3.6,1.8,5.6,1.8c6.8,0,10.5-6,10.5-11.3
		c0-0.2,0-0.3,0-0.5C32.4,20.4,33.1,19.7,33.6,18.9z"/>
</g>
</svg>
