<?xml version="1.0" encoding="utf-8"?>
<!-- Generator: Adobe Illustrator 19.1.0, SVG Export Plug-In . SVG Version: 6.00 Build 0)  -->
<svg version="1.1" id="Layer_1" xmlns="http://www.w3.org/2000/svg" xmlns:xlink="http://www.w3.org/1999/xlink" x="0px" y="0px"
	 viewBox="0 0 50 50" style="enable-background:new 0 0 50 50;" xml:space="preserve">
<style type="text/css">
	.st0{fill:#FC8BA9;}
	.st1{fill:#FCBE5A;}
	.st2{fill:#390CEA;}
	.st3{fill:#F34E30;}
	.st4{fill:#F84C64;}
	.st5{fill:#FFFFFF;}
</style>
<g id="behance">
	<g>
		<rect x="27.1" y="20" width="4.5" height="1.3"/>
		<path d="M33.2,25.1c-0.1-0.6-0.3-1.1-0.6-1.6c-0.4-0.5-0.8-0.9-1.3-1.2C30.6,22.1,30,22,29.4,22c-1.1,0-2.1,0.4-2.8,1.1
			c-0.7,0.7-1.1,1.8-1.1,3.1c0,1.4,0.4,2.5,1.2,3.1c0.8,0.6,1.7,1,2.7,1c1.3,0,2.2-0.4,2.9-1.1c0.4-0.5,0.7-0.9,0.8-1.4H31
			c-0.1,0.2-0.3,0.4-0.4,0.5c-0.3,0.2-0.7,0.4-1.1,0.4c-0.4,0-0.8-0.1-1.1-0.3c-0.5-0.3-0.8-0.9-0.8-1.6h5.7
			C33.2,26,33.2,25.5,33.2,25.1z M27.6,25.3c0.1-0.5,0.3-0.9,0.5-1.2c0.3-0.3,0.7-0.4,1.2-0.4c0.5,0,0.9,0.1,1.2,0.4
			c0.3,0.3,0.5,0.7,0.5,1.2H27.6z"/>
		<path d="M23.2,24.4c0.4-0.2,0.6-0.4,0.8-0.6c0.3-0.4,0.5-0.9,0.5-1.5c0-0.6-0.2-1.2-0.5-1.6c-0.5-0.7-1.4-1.1-2.7-1.1h-5.1V30h4.7
			c0.5,0,1,0,1.5-0.1c0.5-0.1,0.9-0.3,1.2-0.5c0.3-0.2,0.5-0.5,0.7-0.8c0.3-0.5,0.5-1.1,0.5-1.7c0-0.6-0.1-1.1-0.4-1.5
			C24.1,24.9,23.7,24.6,23.2,24.4z M18.3,21.3h2.3c0.5,0,0.9,0.1,1.2,0.2c0.4,0.2,0.6,0.5,0.6,1c0,0.4-0.1,0.7-0.4,0.9
			c-0.3,0.2-0.7,0.3-1.1,0.3h-2.6V21.3z M21.9,28c-0.3,0.1-0.6,0.2-1.1,0.2h-2.6v-2.8h2.6c0.5,0,0.8,0.1,1.1,0.2
			c0.4,0.2,0.7,0.6,0.7,1.1C22.6,27.3,22.4,27.8,21.9,28z"/>
	</g>
</g>
</svg>
