<?xml version="1.0" encoding="utf-8"?>
<!-- Generator: Adobe Illustrator 19.1.0, SVG Export Plug-In . SVG Version: 6.00 Build 0)  -->
<svg version="1.1" id="Layer_1" xmlns="http://www.w3.org/2000/svg" xmlns:xlink="http://www.w3.org/1999/xlink" x="0px" y="0px"
	 viewBox="0 0 50 50" style="enable-background:new 0 0 50 50;" xml:space="preserve">
<style type="text/css">
	.st0{fill:#FC8BA9;}
	.st1{fill:#FCBE5A;}
	.st2{fill:#390CEA;}
	.st3{fill:#F34E30;}
	.st4{fill:#F84C64;}
	.st5{fill:#FFFFFF;}
</style>
<g id="linkedin">
	<g>
		<rect x="16.9" y="22.1" width="3.3" height="10.6"/>
		<path d="M29.3,22c-1.9,0-3.1,1-3.3,1.8v-1.7h-3.7c0,0.9,0,10.6,0,10.6H26v-5.7c0-0.3,0-0.6,0.1-0.9c0.3-0.6,0.8-1.3,1.8-1.3
			c1.3,0,1.9,1,1.9,2.4v5.5h3.8v-5.9C33.5,23.5,31.7,22,29.3,22z"/>
		<path d="M18.5,17.1c-1.2,0-2,0.8-2,1.8c0,1,0.8,1.8,2,1.8h0c1.2,0,2-0.8,2-1.8C20.5,17.9,19.8,17.1,18.5,17.1z"/>
	</g>
</g>
</svg>
